<svg id="_x33_0" enable-background="new 0 0 64 64" height="40" viewBox="0 0 64 64" width="40" xmlns="http://www.w3.org/2000/svg"><g><path d="m23.743 11.669-1.486-1.338-8.212 9.124-3.264-4.08-1.562 1.25 4.736 5.92z"/><path d="m13 35h2v2h-2z"/><path d="m50 23c-1.654 0-3 1.346-3 3s1.346 3 3 3 3-1.346 3-3-1.346-3-3-3zm0 4c-.552 0-1-.449-1-1s.448-1 1-1 1 .449 1 1-.448 1-1 1z"/><path d="m63 37.434c0-5.336-2.338-10.328-6.406-13.761-.48-1.356-1.364-2.52-2.511-3.347l1.218-1.928c.289-.459.379-1.002.253-1.531-.126-.527-.451-.972-.916-1.251l-2.175-1.305.632-1.265.631.368c.315.184.662.272 1.006.272.611 0 1.211-.28 1.602-.8l1.792-2.389c.342-.456.474-1.038.361-1.596-.113-.559-.46-1.045-.953-1.332l-10.261-5.984c-.878-.512-1.998-.285-2.607.527l-1.792 2.389c-.342.456-.474 1.038-.361 1.596.113.559.46 1.045.953 1.332l.669.391-.773 1.031-1.997-1.198c-.939-.563-2.165-.261-2.736.672l-9.012 14.746c-.202-.042-.408-.071-.617-.071h-2.063c1.299-2.023 2.063-4.422 2.063-7 0-7.168-5.832-13-13-13s-13 5.832-13 13c0 2.578.764 4.977 2.063 7h-1.063c-1.654 0-3 1.346-3 3v4c0 1.654 1.346 3 3 3h.827l-3.756 23.477c-.047.294-.071.593-.071.891 0 3.106 2.526 5.632 5.632 5.632h11.368 1 21c1.103 0 2-.897 2-2v-2c0-.01-.003-.019-.003-.029 11.63-.302 21.003-9.836 21.003-21.537zm-8-11.434c0 2.757-2.243 5-5 5s-5-2.243-5-5 2.243-5 5-5 5 2.243 5 5zm-13.003 24.973c-.014-1.09-.904-1.973-1.997-1.973h-9.268l-1.869-11.682c.269.128.553.217.85.217.128 0 .256-.012.384-.037.555-.109 1.04-.449 1.33-.934l1.669-2.781 1.346.871-1.835 3.059c-.529.882-.308 2.013.516 2.629l2.391 1.794c.349.261.771.4 1.201.4.128 0 .256-.012.384-.037.555-.109 1.04-.449 1.33-.934l1.872-3.12 1.329.86c.333.215.708.318 1.08.318.649 0 1.287-.313 1.67-.889l.891-1.335c.3-.449.404-.988.294-1.516-.088-.424-.309-.795-.626-1.077l1.69-2.675c.999.552 2.149.869 3.371.869 1.246 0 2.415-.331 3.43-.905 1.016 1.516 1.57 3.312 1.57 5.147v.229c0 7.283-5.787 13.223-13.003 13.502zm-8.777 4.027.5 2h-9.44l.5-2zm-15.22-2v-2h22l.001 2zm10.284-26.625 15.321 9.914-.891 1.336-15.32-9.914zm10.336 10.982-1.907 3.178-2.392-1.794 1.801-3.001zm-9.702-6.278 2.498 1.616-1.703 2.84-2.392-1.794zm17.348-27.766 10.261 5.985-1.792 2.39-10.261-5.986zm-.392 5.521 5.49 3.202-.621 1.242-5.656-3.394zm-5.538.534 13.272 7.963-1.305 2.066c-.722-.253-1.495-.397-2.303-.397-3.859 0-7 3.14-7 7 0 1.916.775 3.653 2.026 4.918l-1.752 2.774-12.758-8.256zm-24.336-4.368c6.065 0 11 4.935 11 11s-4.935 11-11 11-11-4.935-11-11 4.935-11 11-11zm-13 25v-4c0-.551.448-1 1-1h2.641c2.367 2.46 5.684 4 9.359 4s6.992-1.54 9.359-4h1.481c-.078.082-.154.169-.219.266l-.891 1.335c-.3.449-.404.988-.294 1.516.109.528.419.98.872 1.272l.93.602-.605 1.009h-22.633c-.552 0-1-.449-1-1zm3.632 31c-2.003 0-3.632-1.629-3.632-3.632 0-.192.016-.383.046-.574l1.247-7.794h7.707v-2h-7.387l.64-4h9.747v-2h-9.427l.64-4h4.787v-2h-4.467l.32-2h18.616c-.333.828-.083 1.79.654 2.341l.455.341 2.129 13.318h-10.707c-1.103 0-2 .897-2 2v2c0 1.103.897 2 2 2h4.72l-.5 2h-4.22c-1.103 0-2 .897-2 2v2zm12.368 0h-1v-2h22l.001 2zm22.434-4h-1.434-4.22l-.5-2h4.72c1.103 0 2-.897 2-2v-.027c8.317-.282 15-7.117 15-15.501v-.229c0-2.277-.699-4.506-1.982-6.373 1.045-1.077 1.747-2.486 1.931-4.054 2.586 2.909 4.051 6.652 4.051 10.618 0 10.789-8.777 19.566-19.566 19.566z"/></g></svg>